<svg xmlns="http://www.w3.org/2000/svg" viewBox="0 0 144 171.32"><defs><style>.cls-1{fill:#489cf6;}.cls-2{fill:#a6cefb;}.cls-3{fill:#7ab5f9;}.cls-4{fill:#00cece;}.cls-5{fill:#c3e8ff;}.cls-6{fill:#ffc73b;}.cls-7{fill:#ffcc4e;}.cls-8{fill:#f1faff;}.cls-9{fill:#fafbfc;}.cls-10{fill:#ff782e;}.cls-11{fill:#999;}</style></defs><g id="图层_2" data-name="图层 2"><g id="图层_1-2" data-name="图层 1"><polygon class="cls-1" points="65.48 122.07 14.3 128.35 14.3 62.53 65.48 50.45 65.48 122.07"/><polygon class="cls-2" points="65.5 122.07 124.28 122.04 124.28 56.22 65.5 50.45 65.5 122.07"/><polygon class="cls-1" points="74.68 143.52 14.3 128.35 14.3 62.53 74.68 71.06 74.68 143.52"/><polygon class="cls-3" points="74.66 143.53 124.28 124.59 124.28 56.22 74.68 71.06 74.66 143.53"/><circle class="cls-4" cx="133.62" cy="7.46" r="2.74"/><circle class="cls-1" cx="80.62" cy="12.16" r="2.74"/><circle class="cls-1" cx="4.97" cy="54.31" r="2.46"/><rect class="cls-5" x="19.24" y="29.82" width="5.93" height="18.16" transform="translate(-21.01 27.11) rotate(-45.01)"/><polygon class="cls-6" points="102.15 41.83 105.45 19.99 115.11 26.47 102.15 41.83"/><polygon class="cls-6" points="106.75 43.65 118.09 32.76 118.09 40.6 106.75 43.65"/><polygon class="cls-6" points="99.1 40.79 97.94 22.13 93.47 28.61 99.1 40.79"/><path class="cls-7" d="M61.82,23.4c-1.78,2.9-11.33.29-21.34-5.85S23.79,4.09,25.57,1.18C26.69-.66,31-.27,36.46,1.81c.39.14.78.3,1.17.46l.27.11c2.24-2.5,7-2.68,11.16-.27S55.62,9,54.29,12.25l.49.41c.33.27.64.53.94.81C60.47,17.64,63,21.48,61.82,23.4Z"/><path class="cls-8" d="M115.62,164c0-2.58-20.1-4.67-44.89-4.67s-44.9,2.09-44.9,4.67Z"/><polygon class="cls-9" points="144 80.69 93.86 100.81 74.68 71.06 124.28 56.22 144 80.69"/><polygon class="cls-9" points="0 89.4 62.18 100.81 74.66 71.06 14.3 62.53 0 89.4"/><path class="cls-10" d="M55.72,13.47a20.94,20.94,0,0,1-4.69.58,13.76,13.76,0,0,1-7.46-2c-5.06-3.14-6.77-8.85-7.11-10.2.39.14.78.3,1.17.46.61,1.94,2.4,6.38,6.46,8.91C47,13,50.63,13.5,54.78,12.66,55.11,12.93,55.42,13.19,55.72,13.47Z"/><path class="cls-11" d="M48.09,164.54l-3.19.35-.1-.87,3.29-.29v-1.16H46.41a2.2,2.2,0,0,0-1.12.19,7.41,7.41,0,0,0-.34-.95c.23,0,.46-.28.72-.6a9.91,9.91,0,0,0,.67-1H44.78v-.81h2c.17-.32.34-.64.48-1l1,.29c-.13.24-.27.45-.41.69h3.28v.81h-3.8a14.22,14.22,0,0,1-1.15,1.49h1.81v-.91h1v.91h2.19v.84H49.07v1.06l2.1-.22,0,.78-2.12.24v1.37h-1Zm-1.61,1.53h9.09v5.17h-1v-.46H47.47v.49h-1Zm1,.83V168h7.08V166.9Zm7.08,3v-1.16H47.47V170Zm2.73-7.48H55.64v3.3h-1v-3.3H52.8a6.16,6.16,0,0,1-1.11,3.32,5.29,5.29,0,0,0-.78-.52,6.05,6.05,0,0,0,1-3.77v-2.08a22.1,22.1,0,0,0,4.41-.73l.56.78a20.92,20.92,0,0,1-4,.66v1.48h4.44Z"/><path class="cls-11" d="M69.51,169.93c.69,0,.8-.32.89-2.22a3.13,3.13,0,0,0,1,.43c-.14,2.23-.46,2.8-1.81,2.8H67c-1.44,0-1.82-.36-1.82-1.61v-4.77h-.3a8.64,8.64,0,0,1-5.56,6.72,3.18,3.18,0,0,0-.7-.85,7.89,7.89,0,0,0,5.23-5.87h-5v-1H64a25.37,25.37,0,0,0,.25-3.09H59.65v-1H70.47v1H65.28a23.52,23.52,0,0,1-.25,3.09h6.24v1h-5v4.77c0,.49.12.6.84.6Z"/><path class="cls-11" d="M75.63,162.86a8.77,8.77,0,0,1-2.47,2,3.25,3.25,0,0,0-.56-.79,7.26,7.26,0,0,0,2.71-2.18H72.74v-.87h2.89v-2.59h1v2.59h2.86v.87H76.82c.7.4,1.9,1.19,2.23,1.43l-.58.75a19.11,19.11,0,0,0-1.88-1.48v1.92h-1Zm2.17,7.4a11.34,11.34,0,0,0-1.22-.79,9.08,9.08,0,0,1-3.46,1.68,3.45,3.45,0,0,0-.49-.79A8.61,8.61,0,0,0,75.74,169a22.23,22.23,0,0,0-2.14-1,14.82,14.82,0,0,0,.89-1.48H73v-.88h1.89q.21-.47.36-.9l.93.17c-.1.24-.19.48-.3.73h2.29l.15,0,.59.23a7.36,7.36,0,0,1-1.68,3c.44.26.87.51,1.17.73ZM74.14,161a6.83,6.83,0,0,0-.87-1.83l.76-.31a6.49,6.49,0,0,1,.91,1.8Zm1.35,5.59c-.21.39-.42.78-.62,1.11.52.22,1.08.49,1.58.74a5.36,5.36,0,0,0,1.31-1.85Zm3.6-7.42a19.59,19.59,0,0,1-1.25,1.79l-.67-.32a12.76,12.76,0,0,0,1-1.87Zm5.21,3a17,17,0,0,1-1.53,5.26,7.19,7.19,0,0,0,2.79,2.93,3.8,3.8,0,0,0-.69.81,7.68,7.68,0,0,1-2.64-2.78,9.16,9.16,0,0,1-3.32,2.95,4.51,4.51,0,0,0-.58-.84,7.73,7.73,0,0,0,3.39-3.09,17.46,17.46,0,0,1-1.23-3.74,10.81,10.81,0,0,1-.95,1.83,5.6,5.6,0,0,0-.79-.63,14.72,14.72,0,0,0,2-6.23l1,.14a21.14,21.14,0,0,1-.48,2.42h4v1Zm-3.24,0a19.73,19.73,0,0,0,1.19,4.19,15.74,15.74,0,0,0,1-4.19Z"/><path class="cls-11" d="M89.35,166V170c0,.57-.13.84-.48,1a4.06,4.06,0,0,1-1.74.19,4,4,0,0,0-.3-1h1.31c.17,0,.24-.06.24-.27v-3.6c-.59.2-1.15.37-1.65.52l-.25-1,1.9-.56v-3.07H86.64v-1h1.74v-2.8h1v2.8h1.58v1H89.35V165l1.45-.46.14,1Zm6.9-.91v1.72h2.69v4.39H98v-.52h-4.3v.57h-.91v-4.44h2.48v-1.72H92.5a12.47,12.47,0,0,1-1.68,6.15,2.9,2.9,0,0,0-.84-.59c1.44-2.14,1.57-5.18,1.57-7.39v-4.21h7.34v3.6H96.25v1.54h3.11v.9Zm-1-.9v-1.54h-2.7v.61c0,.3,0,.6,0,.93ZM92.56,160v1.78h5.33V160ZM98,167.74h-4.3v2.11H98Z"/></g></g></svg>